# Blender 4.5.0
# www.blender.org
mtllib CHAR.mtl
o Cube
v 0.205000 0.400000 -0.175000
v 0.205000 0.450000 0.175000
v 0.205000 0.400000 0.175000
v -0.205000 0.400000 -0.175000
v -0.205000 0.450000 0.175000
v -0.205000 0.400000 0.175000
v 0.205000 0.450000 -0.225000
v 0.205000 0.400000 -0.225000
v -0.205000 0.450000 -0.225000
v -0.205000 0.400000 -0.225000
v 0.205000 0.900000 -0.275000
v -0.205000 0.900000 -0.275000
v 0.205000 0.000000 -0.225000
v -0.225000 0.000000 -0.225000
v 0.205000 0.000000 -0.275000
v -0.225000 0.000000 -0.275000
v 0.205000 0.400000 0.225000
v -0.205000 0.400000 0.225000
v 0.205000 0.400000 0.175000
v -0.205000 0.400000 0.175000
v 0.205000 0.400000 0.225000
v -0.205000 0.400000 0.225000
v 0.214994 -0.018532 0.220833
v -0.195006 -0.018532 0.220833
v 0.214994 -0.018532 0.270833
v -0.195006 -0.018532 0.270833
v 0.225000 0.400000 -0.175000
v 0.225000 0.450000 0.175000
v 0.225000 0.400000 0.175000
v 0.225000 0.450000 -0.225000
v 0.225000 0.400000 -0.225000
v 0.225000 0.900000 -0.275000
v 0.225000 0.400000 0.225000
v 0.225000 0.400000 0.175000
v 0.225000 0.400000 0.225000
v 0.234994 -0.018532 0.220833
v 0.234994 -0.018532 0.270833
v -0.225000 0.400000 -0.175000
v -0.225000 0.450000 0.175000
v -0.225000 0.400000 0.175000
v -0.225000 0.450000 -0.225000
v -0.225000 0.400000 -0.225000
v -0.225000 0.900000 -0.275000
v -0.225000 0.400000 0.225000
v -0.225000 0.400000 0.175000
v -0.225000 0.400000 0.175000
v -0.225000 0.400000 0.225000
v -0.215006 -0.018532 0.220833
v -0.215006 -0.018532 0.270833
v -0.225000 0.000000 -0.225000
v -0.205000 0.400000 -0.175000
v -0.205000 0.400000 -0.225000
v -0.225000 0.000000 -0.225000
v -0.225000 0.000000 -0.225000
v -0.225000 0.000000 -0.225000
v -0.225000 0.000000 -0.275000
v 0.205000 0.410000 0.225000
v 0.205000 0.450000 0.185000
v 0.205000 0.430000 0.219641
v 0.205000 0.444641 0.205000
v -0.205000 0.450000 0.185000
v -0.205000 0.410000 0.225000
v -0.205000 0.444641 0.205000
v -0.205000 0.430000 0.219641
v 0.225000 0.450000 0.185000
v 0.225000 0.410000 0.225000
v 0.225000 0.444641 0.205000
v 0.225000 0.430000 0.219641
v -0.225000 0.410000 0.225000
v -0.225000 0.450000 0.185000
v -0.225000 0.430000 0.219641
v -0.225000 0.444641 0.205000
v 0.205000 0.450000 -0.135000
v 0.205000 0.490000 -0.175000
v 0.205000 0.455359 -0.155000
v 0.205000 0.470000 -0.169641
v -0.205000 0.490000 -0.175000
v -0.205000 0.450000 -0.135000
v -0.205000 0.470000 -0.169641
v -0.205000 0.455359 -0.155000
v 0.225000 0.490000 -0.175000
v 0.225000 0.450000 -0.135000
v 0.225000 0.410000 -0.175000
v 0.225000 0.450000 -0.215000
v 0.225000 0.470000 -0.169641
v 0.225000 0.455359 -0.155000
v -0.225000 0.450000 -0.135000
v -0.225000 0.490000 -0.175000
v -0.225000 0.450000 -0.215000
v -0.225000 0.410000 -0.175000
v -0.225000 0.455359 -0.155000
v -0.225000 0.470000 -0.169641
v 0.205000 0.890185 -0.253085
v 0.205000 0.900000 -0.265000
v -0.205000 0.900000 -0.265000
v -0.205000 0.890185 -0.253085
v 0.225000 0.900000 -0.265000
v 0.225000 0.890185 -0.253085
v -0.225000 0.890185 -0.253085
v -0.225000 0.900000 -0.265000
vn -0.0000 -1.0000 -0.0000
vn -0.0000 1.0000 -0.0000
vn -0.0000 -0.0000 -1.0000
vn -0.0000 -0.1240 0.9923
vn -0.0000 -0.1104 -0.9939
vn -0.0000 0.1240 -0.9923
vn 1.0000 -0.0000 -0.0000
vn -0.0000 -0.1089 -0.9941
vn -0.0000 0.1089 0.9941
vn 0.9997 0.0239 -0.0000
vn -0.9997 -0.0239 -0.0000
vn -0.9988 0.0499 -0.0000
vn -0.0000 0.9659 0.2588
vn -0.0000 0.7071 0.7071
vn -0.0000 0.2588 0.9659
vn -0.0000 -0.0000 1.0000
vn -1.0000 -0.0000 -0.0000
vn -0.0000 0.7719 0.6358
vn -0.0000 0.1915 0.9815
vt 0.375000 0.250000
vt 0.125000 0.500000
vt 0.375000 0.500000
vt 0.375000 0.750000
vt 0.125000 0.750000
vt 0.375000 0.000000
vt 0.625000 0.250000
vt 0.625000 0.500000
vt 0.375000 1.000000
vt 0.000000 0.000000
vt 0.625000 0.750000
vt 0.875000 0.750000
vt 0.875000 0.750000
vt 0.625000 0.750000
vt 0.625000 1.000000
vt 0.525000 1.000000
vt 0.525000 0.750000
vt 0.425000 1.000000
vt 0.425000 0.750000
vt 0.605784 0.750000
vt 0.525000 0.750000
vt 0.425000 0.750000
vt 0.425000 1.000000
vt 0.525000 1.000000
vt 0.625000 0.000000
vt 0.425000 0.000000
vt 0.525000 0.000000
vt 0.598205 0.000000
vt 0.625000 0.500000
vt 0.625000 0.503261
vt 0.625000 0.525508
vt 0.425000 0.500000
vt 0.625000 0.221429
vt 0.625000 0.235714
vt 0.625000 0.246172
vt 0.425000 0.250000
vt 0.875000 0.528571
vt 0.625000 0.528571
vt 0.625000 0.514286
vt 0.875000 0.514286
vt 0.875000 0.500000
vt 0.625000 0.500000
vt 0.875000 0.500000
vt 0.875000 0.500000
vt 0.875000 0.500000
vt 0.875000 0.514286
vt 0.875000 0.528571
vt 0.875000 0.500000
s 0
usemtl Material
f 10/1/1 4/1/1 38/1/1 42/1/1
f 4/2/1 1/3/1 3/4/1 6/5/1
f 17/4/2 21/4/2 35/4/2 33/4/2
f 6/6/2 20/6/2 45/6/2 40/6/2
f 10/1/3 9/7/3 7/8/3 8/3/3
f 8/3/3 7/8/3 30/8/3 31/3/3
f 1/3/4 4/2/4 14/2/4 13/3/4
f 7/8/5 9/7/5 12/7/5 11/8/5
f 19/4/2 3/4/2 29/4/2 34/4/2
f 13/3/1 14/2/1 16/2/1 15/3/1
f 10/1/6 8/3/6 15/3/6 16/1/6
f 4/1/2 10/1/2 52/1/2 51/1/2
f 8/3/7 1/3/7 13/3/7 15/3/7
f 12/7/5 9/7/5 41/7/5 43/7/5
f 18/6/2 6/6/2 20/6/2 22/6/2
f 23/4/8 19/4/8 34/4/8 36/4/8
f 6/5/2 3/4/2 19/4/2 20/5/2
f 17/4/2 18/9/2 22/9/2 21/4/2
f 24/5/1 23/4/1 25/4/1 26/5/1
f 20/5/8 19/4/8 23/4/8 24/5/8
f 26/9/9 22/9/9 47/9/9 49/9/9
f 21/4/9 22/9/9 26/9/9 25/4/9
f 34/4/10 35/4/10 37/4/10 36/4/10
f 29/4/2 33/4/2 35/4/2 34/4/2
f 25/4/1 23/4/1 36/4/1 37/4/1
f 1/3/1 8/3/1 31/3/1 27/3/1
f 3/4/1 1/3/1 27/3/1 29/4/1
f 7/8/5 11/8/5 32/8/5 30/8/5
f 21/4/9 25/4/9 37/4/9 35/4/9
f 6/6/1 18/6/1 44/6/1 40/6/1
f 9/7/3 10/1/3 42/1/3 41/7/3
f 4/2/1 6/5/1 40/5/1 38/2/1
f 47/6/11 46/6/11 48/6/11 49/6/11
f 24/5/1 26/5/1 49/5/1 48/5/1
f 22/6/2 20/6/2 46/6/2 47/6/2
f 20/5/8 24/5/8 48/5/8 46/5/8
f 14/2/2 4/2/2 51/2/2 53/2/2
f 51/1/12 52/1/12 54/1/12 53/1/12
f 53/2/2 54/2/2 56/2/2 55/2/2
f 16/10/2 50/10/2 56/10/2 54/10/2
f 10/1/12 16/1/12 54/1/12 52/1/12
f 58/11/13 61/12/13 63/13/13 60/14/13
f 60/14/14 63/15/14 64/16/14 59/17/14
f 59/17/15 64/16/15 62/18/15 57/19/15
f 65/11/13 58/11/13 60/14/13 67/20/13
f 67/20/14 60/14/14 59/17/14 68/21/14
f 68/21/15 59/17/15 57/19/15 66/22/15
f 69/23/15 62/18/15 64/16/15 71/24/15
f 71/24/14 64/16/14 63/15/14 72/15/14
f 72/12/13 63/13/13 61/12/13 70/12/13
f 57/19/16 17/4/16 33/4/16 66/22/16
f 17/4/16 57/19/16 62/18/16 18/9/16
f 2/11/2 5/12/2 61/12/2 58/11/2
f 2/11/2 58/11/2 65/11/2 28/11/2
f 18/9/16 62/18/16 69/23/16 44/9/16
f 61/12/2 5/12/2 39/12/2 70/12/2
f 29/4/7 28/11/7 65/11/7 67/20/7 68/21/7 66/22/7 33/4/7
f 39/25/17 40/6/17 44/6/17 69/26/17 71/27/17 72/28/17 70/25/17
f 81/29/7 85/8/7 86/30/7 82/31/7 83/32/7 84/8/7
f 87/33/17 91/34/17 92/35/17 88/7/17 89/7/17 90/36/17
f 78/37/13 73/38/13 75/39/13 80/40/13
f 80/40/14 75/39/14 76/29/14 79/41/14
f 79/41/15 76/29/15 74/42/15 77/43/15
f 73/38/13 82/31/13 86/30/13 75/39/13
f 75/39/14 86/30/14 85/8/14 76/29/14
f 76/29/15 85/8/15 81/29/15 74/42/15
f 77/43/15 88/44/15 92/45/15 79/41/15
f 79/41/14 92/45/14 91/46/14 80/40/14
f 80/40/13 91/46/13 87/47/13 78/37/13
f 73/38/2 2/11/2 28/11/2 82/31/2
f 73/38/2 78/37/2 5/12/2 2/11/2
f 5/12/2 78/37/2 87/47/2 39/12/2
f 84/8/7 83/32/7 27/3/7 31/3/7 30/8/7
f 27/3/7 83/32/7 82/31/7 28/11/7 29/4/7
f 38/1/17 90/36/17 89/7/17 41/7/17 42/1/17
f 40/6/17 39/25/17 87/33/17 90/36/17 38/1/17
f 96/41/18 93/8/18 94/42/18 95/48/18
f 97/8/18 94/42/18 93/8/18 98/29/18
f 99/44/18 96/41/18 95/48/18 100/45/18
f 77/43/19 74/42/19 93/8/19 96/41/19
f 95/48/2 94/42/2 11/8/2 12/41/2
f 11/8/2 94/42/2 97/8/2 32/8/2
f 93/8/19 74/42/19 81/29/19 98/29/19
f 95/48/2 12/41/2 43/41/2 100/45/2
f 77/43/19 96/41/19 99/44/19 88/44/19
f 81/29/7 84/8/7 30/8/7 32/8/7 97/8/7 98/29/7
f 41/7/17 89/7/17 88/7/17 99/7/17 100/7/17 43/7/17
